<?xml version="1.0" standalone="no"?>
<!DOCTYPE svg PUBLIC "-//W3C//DTD SVG 20010904//EN"
 "http://www.w3.org/TR/2001/REC-SVG-20010904/DTD/svg10.dtd">
<svg version="1.0" xmlns="http://www.w3.org/2000/svg"
 width="732.000000pt" height="732.000000pt" viewBox="0 0 732.000000 732.000000"
 preserveAspectRatio="xMidYMid meet">
<metadata>
Created by potrace 1.14, written by Peter Selinger 2001-2017
</metadata>
<g transform="translate(0.000000,732.000000) scale(0.100000,-0.100000)"
fill="#000000" stroke="none">
<path d="M0 3660 l0 -3660 891 0 c515 1 901 5 915 10 13 5 24 14 24 19 0 19
-94 65 -179 87 -47 12 -86 24 -85 26 15 60 63 175 124 294 77 151 77 152 82
242 3 62 9 97 19 109 29 33 91 186 125 303 59 204 64 230 72 381 6 109 14 163
25 185 18 36 37 137 37 204 0 26 4 50 9 55 10 11 33 178 37 267 1 31 5 61 9
68 13 21 46 226 55 340 6 90 16 139 44 223 20 59 36 122 36 139 0 17 4 45 9
62 15 47 36 178 33 203 -1 12 7 39 19 60 52 94 100 136 200 174 91 35 272 100
308 111 19 5 44 16 55 23 38 23 217 80 244 78 6 0 12 3 12 9 0 5 4 6 10 3 5
-3 31 3 56 14 26 12 51 21 56 21 6 0 36 -16 68 -35 32 -19 87 -43 124 -52 l67
-18 -7 -45 c-9 -64 -34 -112 -69 -130 -16 -8 -31 -15 -31 -15 -1 0 -5 -33 -9
-72 -6 -62 -5 -73 8 -73 25 0 75 -48 119 -114 55 -83 96 -124 129 -131 24 -6
29 -13 38 -58 29 -144 60 -447 82 -787 5 -91 17 -189 26 -217 9 -32 14 -71 11
-98 -3 -26 -1 -45 4 -45 6 0 8 -7 5 -15 -5 -12 8 -208 19 -275 2 -14 8 -50 13
-80 9 -57 2 -80 -26 -80 -11 0 -12 -10 -7 -50 4 -31 3 -50 -4 -50 -9 0 -36 65
-49 118 -3 12 -11 22 -17 22 -12 0 -7 -116 13 -280 6 -47 11 -149 11 -227 0
-152 6 -171 43 -134 21 20 22 33 26 206 2 102 7 185 11 185 45 0 74 -443 35
-527 -14 -28 -15 -41 -6 -55 6 -10 11 -30 11 -44 0 -25 1 -26 18 -11 26 24 47
6 49 -42 1 -36 -1 -40 -28 -46 -32 -7 -38 -22 -11 -32 28 -10 52 -41 59 -75 3
-18 19 -59 34 -90 33 -65 38 -108 13 -108 -16 0 -124 107 -124 122 0 4 -7 16
-15 25 -41 51 -144 196 -182 257 -47 76 -56 126 -24 126 10 0 21 -7 24 -14 7
-18 66 -50 75 -41 10 10 -121 125 -144 125 -35 0 -83 68 -113 163 -7 20 -21
42 -31 47 -10 5 -23 24 -29 41 -14 41 -43 36 -55 -11 -7 -30 -3 -46 28 -111
26 -55 36 -89 36 -125 0 -27 7 -62 15 -78 8 -15 15 -35 15 -42 0 -8 4 -14 8
-14 5 0 14 -19 21 -42 7 -24 15 -51 18 -62 5 -18 4 -18 -27 0 -35 21 -77 65
-106 110 -10 16 -32 43 -49 59 -20 20 -30 40 -30 60 0 26 -4 31 -30 35 -36 6
-84 32 -106 57 -35 40 -109 104 -131 112 -54 19 -78 22 -78 7 0 -8 3 -16 8
-18 4 -2 19 -21 33 -43 14 -22 68 -84 119 -138 99 -104 190 -213 190 -227 0
-5 -22 -16 -49 -25 -27 -9 -52 -23 -55 -32 -7 -17 33 -65 71 -86 166 -90 223
-136 362 -295 l63 -72 214 0 c206 0 214 1 214 20 0 10 -12 30 -26 43 -22 21
-24 28 -15 46 6 11 28 32 49 46 39 27 172 171 172 188 0 5 -7 7 -15 4 -8 -4
-17 -2 -20 3 -13 22 -49 8 -98 -38 -55 -51 -96 -82 -110 -82 -12 0 1 70 27
147 24 67 116 272 194 428 22 44 52 109 66 145 15 36 33 77 42 92 13 24 13 31
0 55 -13 27 -13 29 19 53 36 27 76 83 126 177 33 60 89 153 94 153 1 0 -3 -30
-10 -67 -12 -68 -36 -132 -102 -270 -29 -63 -63 -148 -63 -159 0 -16 33 2 59
31 39 45 71 107 109 217 17 47 42 108 55 135 14 26 45 98 70 158 25 61 57 133
71 161 14 29 26 55 26 59 0 3 14 36 31 73 69 148 121 269 153 355 27 72 28 75
104 242 27 61 53 123 56 139 4 17 16 41 26 55 10 14 25 50 34 80 9 30 25 69
36 88 11 19 20 40 20 48 0 7 13 38 29 68 16 30 32 70 36 89 4 18 18 53 30 78
13 25 51 113 85 195 34 83 76 182 92 220 17 39 45 124 63 191 18 66 39 130 46
142 17 26 53 36 82 21 21 -11 139 -103 182 -142 39 -36 183 -116 380 -212 206
-101 229 -112 255 -126 44 -24 173 -79 197 -85 28 -6 74 -27 143 -65 19 -10
45 -19 56 -19 12 0 33 -9 47 -20 14 -11 40 -23 59 -27 18 -3 45 -14 60 -24 14
-11 34 -19 45 -19 10 0 29 -6 43 -13 14 -7 33 -16 43 -20 16 -6 17 99 17 2128
l0 2135 -3660 0 -3660 0 0 -3660z m5255 3235 c225 -29 389 -76 535 -152 96
-50 90 -46 185 -140 91 -90 167 -226 202 -362 29 -111 41 -201 82 -621 45
-456 76 -669 105 -735 60 -132 90 -192 103 -208 19 -20 44 -160 34 -191 -17
-57 -67 -128 -138 -197 -98 -95 -121 -109 -150 -96 -36 16 -27 44 35 110 81
86 98 118 118 227 14 81 15 103 4 160 -24 127 -76 192 -246 306 -49 32 -124
93 -167 134 -91 86 -200 242 -219 313 -17 65 -41 61 -45 -9 -3 -39 2 -61 22
-98 30 -57 31 -65 5 -41 -25 23 -26 15 -1 -14 12 -14 20 -18 23 -10 2 7 15 -3
28 -22 13 -19 61 -73 107 -121 46 -47 83 -91 83 -96 0 -5 30 -24 68 -42 72
-36 113 -65 170 -121 86 -85 141 -164 142 -203 0 -11 -7 -49 -16 -85 -38 -156
-118 -264 -209 -286 l-30 -7 29 25 c16 14 36 23 45 20 13 -4 13 -3 2 5 -12 9
-10 15 11 40 14 17 36 52 49 79 21 42 24 61 23 163 0 104 -3 120 -28 173 -25
51 -30 57 -56 55 -27 -2 -37 -6 -16 -6 11 -1 39 -63 31 -70 -3 -3 -5 0 -5 6 0
6 -49 47 -108 91 -108 80 -155 131 -167 184 -8 30 -53 68 -82 66 -13 -1 -11
-3 6 -8 16 -4 25 -15 26 -29 2 -29 -7 -28 -41 6 -40 38 -78 94 -103 148 -17
38 -42 261 -35 317 4 30 2 62 -3 73 -14 25 -6 44 18 44 11 0 19 7 19 16 0 9
10 35 22 58 13 22 23 42 23 42 0 1 10 5 23 8 33 11 29 -19 -5 -41 -16 -9 -30
-18 -32 -19 -8 -6 25 -64 37 -64 8 0 46 30 85 66 40 36 82 71 95 77 12 5 22
14 22 19 0 14 -63 48 -90 48 -15 0 -30 4 -36 10 -5 5 -39 12 -74 15 -144 10
-230 35 -244 70 -3 9 -6 29 -6 43 0 42 -11 72 -26 72 -8 0 -14 4 -14 9 0 15
-112 40 -205 46 -306 19 -465 22 -690 14 -321 -11 -647 -52 -821 -105 -44 -13
-86 -24 -92 -24 -25 0 -31 46 -16 110 8 34 13 67 12 74 -1 6 24 63 55 127 63
128 135 226 176 236 14 3 33 13 42 22 10 9 35 25 56 35 21 11 59 34 84 52 25
17 57 35 70 39 13 4 59 25 101 46 43 22 84 39 91 39 8 0 28 7 44 15 17 8 63
19 102 24 40 5 77 13 84 19 7 5 66 15 132 21 66 7 129 14 140 15 60 9 315 3
410 -9z m419 -1102 c-20 -32 -42 -65 -50 -73 -31 -36 -82 -169 -89 -231 -13
-127 36 -227 215 -442 93 -112 118 -136 146 -141 18 -4 59 -26 91 -50 116 -86
168 -170 161 -261 -4 -45 -12 -62 -55 -116 -73 -92 -166 -177 -218 -200 l-45
-20 -65 22 c-63 21 -66 21 -146 5 -149 -30 -298 -114 -539 -306 -137 -108
-229 -174 -286 -203 -31 -16 -32 -16 -38 6 -3 12 -6 32 -6 43 0 12 -7 35 -15
50 -11 21 -14 47 -10 99 4 55 3 65 -5 45 -6 -14 -9 -32 -7 -40 4 -14 -1 -15
-29 -6 -39 13 -44 23 -11 28 30 4 38 48 8 48 -12 0 -21 6 -21 15 0 20 39 20
54 0 9 -12 12 -8 14 24 l2 39 -62 5 c-150 14 -178 20 -178 33 0 8 -12 26 -27
42 -26 27 -74 46 -180 72 -43 11 -67 30 -39 30 9 0 16 9 16 20 0 11 -7 20 -15
20 -27 0 -16 18 35 54 35 26 50 43 50 59 0 37 -10 38 -44 7 -51 -48 -57 -40
-14 22 10 14 18 29 18 32 0 28 -236 -134 -260 -179 -10 -19 -19 -23 -37 -19
-13 4 -30 1 -38 -6 -12 -10 -16 -9 -21 6 -27 84 -78 174 -151 263 -25 30 -54
72 -66 93 -26 46 -49 45 -58 -1 -7 -36 -42 -70 -70 -71 -35 0 -54 39 -54 109
l0 67 -47 0 c-25 -1 -49 2 -52 5 -3 3 3 53 15 110 19 97 51 169 73 169 22 0
75 -53 86 -85 13 -40 29 -45 155 -49 75 -2 87 -6 188 -56 86 -42 119 -54 164
-56 37 -2 59 -7 65 -17 15 -28 72 -54 158 -72 116 -24 159 -42 166 -70 7 -29
39 -59 53 -51 6 4 18 -2 28 -13 11 -13 44 -26 92 -36 42 -9 88 -20 103 -25 18
-5 30 -4 35 2 3 7 1 8 -5 4 -7 -4 -12 -1 -12 8 0 8 -3 21 -6 30 -4 11 -1 16
10 16 9 0 16 8 16 20 0 17 7 20 43 20 36 1 45 5 62 32 16 24 42 39 120 70 91
36 114 50 115 71 0 30 -363 -112 -418 -163 -12 -11 -35 -20 -52 -20 l-30 0 17
43 c9 23 22 51 30 62 19 28 16 37 -8 30 -35 -12 -17 18 23 37 38 18 78 72 78
106 0 11 5 24 10 27 15 10 12 35 -5 35 -20 0 -20 2 17 61 17 28 37 67 43 86
l12 35 7 -58 c6 -51 3 -64 -24 -120 -34 -72 -35 -74 -16 -74 18 0 96 120 96
147 0 11 7 26 15 33 21 17 19 33 -10 90 -31 60 -35 137 -7 147 9 3 42 29 72
59 30 29 83 78 118 110 92 85 122 142 128 251 3 48 7 94 10 101 2 9 56 12 224
12 l221 0 -37 -57z m-1564 -80 c46 -46 64 -55 212 -103 48 -15 153 -61 235
-101 l148 -74 121 0 c88 0 125 4 137 14 27 22 20 -3 -8 -29 -14 -13 -25 -29
-25 -35 0 -6 -33 -17 -78 -24 -101 -16 -146 -8 -342 63 -133 49 -163 56 -232
58 -43 0 -80 -1 -82 -3 -9 -9 50 -88 66 -89 9 0 19 -8 22 -17 9 -27 71 -53
126 -53 40 0 68 -10 146 -51 84 -44 102 -50 145 -47 l49 3 0 -43 c0 -49 -33
-120 -80 -172 -36 -40 -103 -136 -113 -162 -3 -10 -15 -18 -26 -18 -11 0 -26
-7 -35 -15 -13 -14 -19 -13 -53 2 -21 10 -72 46 -113 81 -40 34 -99 74 -130
88 -30 15 -80 41 -110 60 -30 18 -74 38 -96 43 -38 10 -43 16 -61 64 -15 36
-18 56 -10 65 5 7 7 15 3 19 -3 3 -6 1 -6 -5 0 -13 -80 -15 -145 -4 -53 10
-54 26 -11 112 39 77 44 101 21 120 -13 11 -14 8 -9 -19 5 -23 3 -31 -8 -31
-8 0 -25 -11 -38 -25 -52 -56 -55 -7 -4 62 20 26 39 50 41 53 3 3 10 -3 17
-13 16 -21 48 -23 40 -2 -3 8 4 32 16 52 17 29 20 46 16 77 -8 46 18 92 69
123 72 43 125 37 185 -24z m59 1 c3 -16 1 -17 -13 -5 -19 16 -21 34 -3 29 6
-3 14 -13 16 -24z m-555 -602 c-8 -37 -20 -41 -30 -10 -4 15 -1 25 12 35 23
17 25 13 18 -25z m1106 -141 c0 -13 -29 -35 -37 -28 -7 8 15 37 28 37 5 0 9
-4 9 -9z m-1 -87 c-13 -14 -42 -40 -64 -56 -30 -22 -25 -16 18 26 59 57 90 77
46 30z m-1420 -646 c-26 -83 -71 -136 -119 -143 -19 -3 -29 -3 -22 1 7 3 12
26 12 60 0 36 -4 53 -10 49 -7 -4 -9 3 -5 19 3 14 7 38 11 52 6 30 110 144
131 144 7 0 14 6 15 13 1 6 4 -19 5 -58 3 -52 -2 -87 -18 -137z m821 57 c-23
-25 -40 -32 -40 -17 0 7 49 41 59 42 3 0 -6 -11 -19 -25z m-963 -127 c-3 -8
-6 -5 -6 6 -1 11 2 17 5 13 3 -3 4 -12 1 -19z m2383 -457 c-39 -62 -102 -120
-140 -128 -34 -6 -39 -29 -13 -49 10 -7 15 -16 11 -19 -4 -4 -15 1 -25 11 -17
17 -18 16 -23 -22 l-5 -39 -14 38 c-12 37 -11 42 28 124 23 47 41 91 41 99 0
9 12 14 38 15 20 1 48 5 62 9 14 4 35 8 47 9 22 1 22 0 -7 -48z m-254 -30
c-46 -37 -112 -115 -137 -163 -20 -40 -36 -48 -45 -24 -13 33 59 123 139 177
69 45 96 52 43 10z m-6 -207 c0 -31 -23 -28 -28 4 -2 15 2 22 12 22 11 0 16
-9 16 -26z m-459 -34 c10 -6 19 -19 19 -29 0 -18 -293 -311 -311 -311 -5 0 -9
16 -9 36 0 79 202 310 273 314 5 0 17 -5 28 -10z m422 -47 c15 -3 27 -7 27 -9
0 -2 -16 -18 -36 -36 -28 -26 -37 -44 -42 -83 l-8 -50 -16 25 c-9 14 -19 45
-23 70 -3 25 -2 39 1 33 11 -24 21 -13 28 28 5 33 10 40 24 34 9 -3 29 -9 45
-12z m-739 -375 c-1 -32 -6 -63 -12 -70 -17 -21 -5 -212 22 -357 29 -150 34
-286 12 -359 -7 -26 -19 -69 -25 -97 -7 -27 -28 -83 -47 -123 -29 -61 -38 -73
-56 -70 -17 2 -25 14 -33 48 -12 45 -32 551 -28 705 2 80 30 244 52 299 16 40
70 88 95 84 19 -3 21 -9 20 -60z m-280 -367 c-9 -10 -26 18 -18 30 5 9 9 8 14
-7 4 -10 6 -21 4 -23z m26 -290 l0 -59 -32 5 c-44 7 -49 13 -10 13 32 0 32 1
32 50 0 28 2 50 5 50 3 0 5 -27 5 -59z m30 -235 c0 -11 7 -34 15 -50 23 -43
20 -58 -10 -50 -31 8 -32 -5 -4 -40 23 -29 21 -56 -5 -91 -14 -17 -17 -18 -26
-5 -24 35 -32 98 -26 189 4 52 9 98 13 104 9 14 43 -30 43 -57z m320 -84 c-7
-45 -15 -84 -19 -86 -3 -2 -25 -7 -48 -11 -36 -6 -43 -4 -43 9 0 9 4 16 8 16
9 0 35 46 37 65 8 67 18 95 36 95 11 0 23 8 27 18 13 35 15 -21 2 -106z m-609
45 c-13 -13 -15 1 -4 30 7 17 8 17 11 -1 2 -10 -1 -23 -7 -29z m37 -106 c5
-29 -6 -71 -17 -71 -5 0 -11 15 -13 33 -3 17 -9 40 -13 50 -6 16 -4 18 16 15
16 -2 25 -11 27 -27z m370 -103 c19 -19 14 -57 -14 -94 -28 -36 -64 -46 -64
-16 0 9 -3 28 -7 41 -5 21 -4 22 14 12 26 -14 34 -5 22 26 -5 13 -9 29 -9 34
0 13 44 11 58 -3z m78 -75 c-11 -11 -17 4 -9 23 7 18 8 18 11 1 2 -10 1 -21
-2 -24z m339 0 c-20 -46 -41 -70 -30 -33 8 25 34 70 41 70 2 0 -3 -17 -11 -37z
m-331 -90 c-3 -16 -10 -42 -15 -60 -6 -17 -12 -43 -15 -58 -4 -23 -2 -26 16
-20 11 4 20 2 20 -4 0 -17 -37 -13 -80 9 -48 24 -73 25 -106 4 -13 -9 -27 -14
-31 -11 -14 15 10 37 56 54 67 23 69 48 5 56 -28 3 -50 12 -59 23 -17 24 -12
29 13 15 29 -15 132 -13 162 3 37 20 41 19 34 -11z m-324 -9 c0 -11 -5 -14
-16 -10 -9 3 -20 6 -25 6 -5 0 -9 5 -9 10 0 6 11 10 25 10 16 0 25 -6 25 -16z
m555 -104 c-9 -18 -19 -30 -21 -27 -3 3 2 19 11 37 9 18 19 30 21 27 3 -3 -2
-19 -11 -37z m-755 -159 c0 -15 -16 -22 -34 -15 -25 9 -19 24 9 24 14 0 25 -4
25 -9z m10 -76 c0 -8 17 -19 41 -26 45 -14 45 -15 52 -76 4 -36 1 -46 -28 -77
-35 -38 -55 -46 -55 -21 0 8 -12 43 -26 79 -20 48 -25 73 -20 100 7 35 36 53
36 21z m295 -155 c0 -16 -28 -25 -52 -16 -12 5 -13 9 -3 22 16 18 55 15 55 -6z
m72 -66 c-9 -9 -28 6 -21 18 4 6 10 6 17 -1 6 -6 8 -13 4 -17z"/>
<path d="M4473 6763 c-13 -2 -23 -8 -23 -13 0 -5 -7 -7 -15 -4 -9 4 -15 0 -15
-10 0 -9 -5 -16 -12 -16 -6 0 -9 -3 -5 -6 7 -8 67 18 67 28 0 5 7 8 15 8 8 0
15 5 15 10 0 6 -1 9 -2 9 -2 -1 -13 -4 -25 -6z"/>
<path d="M4265 6740 c-3 -6 1 -7 9 -4 18 7 21 14 7 14 -6 0 -13 -4 -16 -10z"/>
<path d="M4233 6716 c1 -11 9 -21 17 -23 10 -3 11 -2 4 4 -6 4 -14 15 -17 23
-5 11 -6 9 -4 -4z"/>
<path d="M4324 6693 c-1 -10 -4 -31 -8 -48 -7 -29 -7 -29 9 4 8 18 15 40 15
47 0 21 -16 17 -16 -3z"/>
<path d="M4296 6683 c-6 -14 -5 -15 5 -6 7 7 10 15 7 18 -3 3 -9 -2 -12 -12z"/>
<path d="M4165 6670 c3 -5 11 -10 16 -10 6 0 7 5 4 10 -3 6 -11 10 -16 10 -6
0 -7 -4 -4 -10z"/>
<path d="M4102 6620 c0 -14 2 -19 5 -12 2 6 2 18 0 25 -3 6 -5 1 -5 -13z"/>
<path d="M4286 6604 c-4 -9 -4 -19 -1 -22 2 -3 7 3 11 12 4 9 4 19 1 22 -2 3
-7 -3 -11 -12z"/>
<path d="M4633 6594 c9 -10 77 -12 77 -2 0 4 -19 8 -42 8 -23 0 -39 -3 -35 -6z"/>
<path d="M3955 6580 c-3 -6 1 -7 9 -4 18 7 21 14 7 14 -6 0 -13 -4 -16 -10z"/>
<path d="M4570 6570 c-19 -11 -32 -19 -29 -20 11 0 79 30 79 35 0 9 -14 5 -50
-15z"/>
<path d="M4140 6570 c0 -5 5 -10 10 -10 6 0 10 5 10 10 0 6 -4 10 -10 10 -5 0
-10 -4 -10 -10z"/>
<path d="M3900 6545 c0 -8 2 -15 4 -15 2 0 6 7 10 15 3 8 1 15 -4 15 -6 0 -10
-7 -10 -15z"/>
<path d="M3860 6530 c-12 -7 -10 -9 7 -7 12 0 19 5 17 9 -6 10 -6 10 -24 -2z"/>
<path d="M4340 6526 c0 -9 5 -16 10 -16 6 0 10 4 10 9 0 6 -4 13 -10 16 -5 3
-10 -1 -10 -9z"/>
<path d="M4313 6515 c-3 -9 -3 -18 -1 -21 3 -3 8 4 11 16 6 23 -1 27 -10 5z"/>
<path d="M4710 6521 c0 -18 42 -81 54 -81 5 0 2 8 -7 18 -8 9 -23 31 -31 47
-9 17 -16 24 -16 16z"/>
<path d="M4086 6481 c-4 -7 -5 -15 -2 -18 9 -9 19 4 14 18 -4 11 -6 11 -12 0z"/>
<path d="M3809 6463 c-13 -16 -12 -17 4 -4 9 7 17 15 17 17 0 8 -8 3 -21 -13z"/>
<path d="M4171 6464 c0 -11 3 -14 6 -6 3 7 2 16 -1 19 -3 4 -6 -2 -5 -13z"/>
<path d="M4370 6460 c-13 -8 -12 -10 3 -10 9 0 17 5 17 10 0 12 -1 12 -20 0z"/>
<path d="M3995 6450 c-3 -5 0 -7 8 -4 9 3 22 -4 31 -18 9 -12 16 -18 16 -12 0
11 -32 44 -43 44 -3 0 -9 -4 -12 -10z"/>
<path d="M4070 6440 c0 -5 5 -10 10 -10 6 0 10 5 10 10 0 6 -4 10 -10 10 -5 0
-10 -4 -10 -10z"/>
<path d="M4132 6424 c-12 -15 -21 -28 -19 -30 5 -6 47 35 47 46 0 14 -2 13
-28 -16z"/>
<path d="M4770 6421 c0 -6 4 -13 10 -16 6 -3 7 1 4 9 -7 18 -14 21 -14 7z"/>
<path d="M3970 6378 c0 -4 14 -8 30 -8 17 0 30 2 30 4 0 2 -13 6 -30 8 -16 3
-30 1 -30 -4z"/>
<path d="M4804 6348 c0 -18 -3 -44 -8 -57 -5 -16 -5 -21 3 -17 15 10 25 71 14
91 -7 12 -9 9 -9 -17z"/>
<path d="M4570 6322 c-30 -20 -60 -52 -60 -64 0 -4 17 8 37 27 20 19 43 35 50
35 7 0 13 5 13 10 0 14 -11 12 -40 -8z"/>
<path d="M4708 6261 c10 -28 18 -46 20 -41 5 14 -18 90 -27 90 -5 0 -2 -22 7
-49z"/>
<path d="M4790 6241 c0 -6 5 -11 11 -11 6 0 9 -9 6 -20 -3 -11 -1 -18 4 -14
14 8 11 30 -6 44 -10 9 -15 9 -15 1z"/>
<path d="M4480 6218 c0 -19 2 -20 10 -8 13 19 13 30 0 30 -5 0 -10 -10 -10
-22z"/>
<path d="M3680 6221 c0 -6 4 -13 10 -16 6 -3 7 1 4 9 -7 18 -14 21 -14 7z"/>
<path d="M4458 6183 c7 -3 16 -2 19 1 4 3 -2 6 -13 5 -11 0 -14 -3 -6 -6z"/>
<path d="M4278 6173 c7 -3 16 -2 19 1 4 3 -2 6 -13 5 -11 0 -14 -3 -6 -6z"/>
<path d="M3670 6121 c0 -6 4 -13 10 -16 6 -3 7 1 4 9 -7 18 -14 21 -14 7z"/>
<path d="M5878 6088 c-3 -8 -30 -15 -68 -18 -80 -6 -91 -27 -18 -32 87 -6 105
0 110 33 5 29 -16 43 -24 17z"/>
<path d="M5600 6035 c7 -8 16 -15 21 -15 5 0 9 7 9 15 0 9 -9 15 -21 15 -18 0
-19 -2 -9 -15z"/>
<path d="M5953 6024 c-11 -30 36 -138 53 -121 6 6 -34 137 -42 137 -3 0 -7 -7
-11 -16z"/>
<path d="M5950 5606 c-87 -13 -137 -39 -163 -84 -17 -30 -18 -39 -8 -90 14
-72 50 -111 109 -119 28 -4 49 -1 64 9 13 8 49 17 80 20 108 9 172 81 153 171
-11 50 -51 97 -83 97 l-27 0 25 -13 c28 -14 57 -65 65 -118 4 -27 1 -42 -15
-62 -43 -54 -140 -57 -140 -3 0 14 -4 27 -9 30 -4 3 -8 37 -8 76 0 70 0 71 28
77 16 3 26 9 23 14 -3 5 -8 9 -12 8 -4 -1 -41 -6 -82 -13z m-11 -70 c15 -18
37 -144 27 -153 -10 -10 -25 17 -19 33 2 6 -1 15 -6 19 -6 3 -9 11 -5 16 3 5
1 15 -4 22 -5 7 -13 27 -17 45 -7 34 4 42 24 18z m-65 -117 c-3 -5 -9 -9 -13
-9 -11 0 -21 37 -13 45 9 8 33 -26 26 -36z"/>
<path d="M5726 5227 c3 -10 9 -15 12 -12 3 3 0 11 -7 18 -10 9 -11 8 -5 -6z"/>
<path d="M5995 4960 c-13 -6 -15 -9 -5 -9 8 0 22 4 30 9 18 12 2 12 -25 0z"/>
<path d="M6040 4950 c0 -5 5 -10 11 -10 5 0 7 5 4 10 -3 6 -8 10 -11 10 -2 0
-4 -4 -4 -10z"/>
<path d="M6046 4913 c-6 -14 -5 -15 5 -6 7 7 10 15 7 18 -3 3 -9 -2 -12 -12z"/>
<path d="M6278 4653 c7 -3 16 -2 19 1 4 3 -2 6 -13 5 -11 0 -14 -3 -6 -6z"/>
<path d="M5265 5593 c-14 -14 -16 -29 -10 -97 4 -45 12 -86 17 -93 6 -7 8 -53
6 -105 -3 -71 -9 -104 -27 -140 -25 -51 -46 -61 -56 -28 -7 22 -35 28 -35 7 0
-7 6 -19 13 -26 10 -10 8 -14 -8 -23 -32 -19 -75 -65 -75 -82 0 -38 153 4 219
61 82 69 98 146 72 343 -17 129 -21 144 -47 171 -32 33 -46 36 -69 12z m42
-95 c-3 -8 -6 -5 -6 6 -1 11 2 17 5 13 3 -3 4 -12 1 -19z"/>
<path d="M5205 5289 c-5 -46 -4 -74 4 -82 12 -12 16 -2 25 57 6 42 -2 96 -14
96 -4 0 -11 -32 -15 -71z"/>
<path d="M5010 5291 c-79 -29 -75 -94 12 -181 56 -55 68 -53 68 15 0 55 0 55
-30 55 -33 0 -50 23 -34 45 57 77 54 92 -16 66z"/>
<path d="M5072 5250 c0 -14 2 -19 5 -12 2 6 2 18 0 25 -3 6 -5 1 -5 -13z"/>
<path d="M4856 5055 c-9 -26 -7 -32 5 -12 6 10 9 21 6 23 -2 3 -7 -2 -11 -11z"/>
<path d="M3515 5039 c-4 -5 1 -19 11 -30 16 -18 19 -18 27 -4 14 27 -23 60
-38 34z m33 -18 c3 -8 -1 -12 -9 -9 -7 2 -15 10 -17 17 -3 8 1 12 9 9 7 -2 15
-10 17 -17z"/>
<path d="M4835 5010 c3 -5 8 -10 11 -10 2 0 4 5 4 10 0 6 -5 10 -11 10 -5 0
-7 -4 -4 -10z"/>
<path d="M5553 4995 c-19 -21 -16 -27 9 -23 13 2 24 11 26 21 4 20 -18 22 -35
2z"/>
<path d="M4828 4983 c7 -3 16 -2 19 1 4 3 -2 6 -13 5 -11 0 -14 -3 -6 -6z"/>
<path d="M5665 4944 c-11 -3 -31 -9 -45 -14 -14 -4 -38 -11 -53 -15 -22 -4
-28 -11 -25 -28 2 -17 11 -23 35 -25 27 -3 33 1 39 22 6 26 21 31 99 38 17 2
30 8 30 13 0 11 -48 16 -80 9z"/>
<path d="M5424 4926 c-10 -8 -16 -17 -12 -21 8 -8 48 13 48 25 0 14 -13 12
-36 -4z"/>
<path d="M3471 4914 c0 -11 3 -14 6 -6 3 7 2 16 -1 19 -3 4 -6 -2 -5 -13z"/>
<path d="M5680 4890 c0 -5 8 -10 18 -11 14 0 14 -2 -3 -9 -18 -8 -17 -9 8 -9
31 -1 36 14 8 29 -25 13 -31 13 -31 0z"/>
<path d="M3913 4862 c1 -12 6 -18 15 -15 7 3 10 9 5 12 -4 3 -11 10 -15 15 -4
4 -6 -1 -5 -12z"/>
<path d="M5375 4855 c-22 -8 -41 -15 -42 -15 0 0 -10 -16 -22 -35 -19 -34 -22
-35 -66 -29 -45 7 -45 6 -45 -23 0 -28 -3 -30 -60 -41 -98 -18 -125 -67 -68
-121 18 -17 29 -33 26 -37 -4 -4 -27 -1 -52 5 -58 14 -89 14 -84 -1 7 -20 100
-65 150 -72 56 -8 85 4 158 69 28 25 55 45 61 45 6 0 25 11 43 25 18 13 70 42
117 64 46 21 109 56 139 77 51 35 60 38 128 39 56 1 76 5 90 19 16 18 15 18
-21 12 -34 -6 -39 -4 -44 13 -5 21 -23 30 -23 12 0 -12 -57 -32 -74 -25 -7 3
-25 0 -40 -6 -29 -11 -115 4 -127 23 -11 17 -102 18 -144 2z m103 -63 c4 -26
-22 -31 -32 -6 -10 26 -7 36 12 32 9 -2 18 -13 20 -26z"/>
<path d="M4008 4818 c5 -5 16 -8 23 -6 8 3 3 7 -10 11 -17 4 -21 3 -13 -5z"/>
<path d="M4156 4797 c3 -10 9 -15 12 -12 3 3 0 11 -7 18 -10 9 -11 8 -5 -6z"/>
<path d="M4051 4784 c0 -11 3 -14 6 -6 3 7 2 16 -1 19 -3 4 -6 -2 -5 -13z"/>
<path d="M5165 4750 c-3 -5 -1 -10 4 -10 6 0 11 5 11 10 0 6 -2 10 -4 10 -3 0
-8 -4 -11 -10z"/>
<path d="M3550 4686 c0 -8 4 -17 9 -20 5 -4 7 3 4 14 -6 23 -13 26 -13 6z"/>
<path d="M4402 4677 c-52 -62 17 -159 71 -99 24 26 22 88 -2 102 -27 14 -56
13 -69 -3z"/>
<path d="M3584 4655 c0 -14 4 -25 8 -25 4 0 7 9 5 20 -5 29 -13 33 -13 5z"/>
<path d="M3775 4659 c-4 -6 -5 -12 -2 -15 2 -3 7 2 10 11 7 17 1 20 -8 4z"/>
<path d="M4875 4620 c-3 -5 -2 -10 4 -10 5 0 13 5 16 10 3 6 2 10 -4 10 -5 0
-13 -4 -16 -10z"/>
<path d="M4836 4605 c-3 -8 -1 -15 4 -15 6 0 10 7 10 15 0 8 -2 15 -4 15 -2 0
-6 -7 -10 -15z"/>
<path d="M4860 4589 c0 -5 11 -9 25 -9 14 0 25 2 25 4 0 2 -11 6 -25 8 -14 3
-25 1 -25 -3z"/>
<path d="M4920 4580 c0 -5 7 -10 16 -10 8 0 12 5 9 10 -3 6 -10 10 -16 10 -5
0 -9 -4 -9 -10z"/>
<path d="M3820 4566 c0 -2 8 -10 18 -17 15 -13 16 -12 3 4 -13 16 -21 21 -21
13z"/>
<path d="M4550 4550 c0 -5 5 -10 11 -10 5 0 7 5 4 10 -3 6 -8 10 -11 10 -2 0
-4 -4 -4 -10z"/>
<path d="M4870 4529 c0 -6 6 -17 14 -24 12 -12 16 -12 27 1 10 13 10 17 -2 25
-19 12 -39 11 -39 -2z"/>
<path d="M4056 4414 c-23 -23 -20 -30 4 -9 11 10 20 20 20 22 0 7 -9 2 -24
-13z"/>
<path d="M4862 4405 c-11 -14 -25 -25 -31 -25 -6 0 -16 -10 -21 -22 -5 -13
-18 -34 -29 -48 -21 -28 -36 -80 -23 -80 5 0 26 26 47 58 21 31 51 73 66 93
16 20 29 40 29 43 0 14 -20 4 -38 -19z"/>
<path d="M4016 4386 c6 -15 4 -17 -6 -11 -9 6 -11 4 -5 -4 5 -9 10 -10 18 -2
8 8 7 14 -2 24 -10 10 -11 8 -5 -7z"/>
<path d="M3947 4349 c7 -7 15 -10 18 -7 3 3 -2 9 -12 12 -14 6 -15 5 -6 -5z"/>
<path d="M4557 4179 c7 -7 15 -10 18 -7 3 3 -2 9 -12 12 -14 6 -15 5 -6 -5z"/>
<path d="M4705 4160 c3 -5 8 -10 11 -10 2 0 4 5 4 10 0 6 -5 10 -11 10 -5 0
-7 -4 -4 -10z"/>
<path d="M4038 5733 c7 -3 16 -2 19 1 4 3 -2 6 -13 5 -11 0 -14 -3 -6 -6z"/>
<path d="M3902 5694 c-7 -8 -8 -14 -3 -14 10 0 25 19 20 25 -2 1 -10 -3 -17
-11z"/>
<path d="M4086 5691 c-3 -4 6 -13 19 -19 30 -14 31 -12 5 10 -10 10 -22 14
-24 9z"/>
<path d="M4228 5613 c7 -3 16 -2 19 1 4 3 -2 6 -13 5 -11 0 -14 -3 -6 -6z"/>
<path d="M4025 5560 c3 -5 8 -10 11 -10 2 0 4 5 4 10 0 6 -5 10 -11 10 -5 0
-7 -4 -4 -10z"/>
<path d="M4073 5553 c-19 -7 -16 -31 5 -37 9 -3 26 -19 37 -35 23 -35 55 -48
55 -22 0 23 -57 101 -73 100 -6 0 -18 -3 -24 -6z"/>
<path d="M4175 5550 c-6 -9 11 -50 21 -50 2 0 0 9 -6 20 -6 11 -8 25 -5 30 3
6 4 10 1 10 -3 0 -8 -4 -11 -10z"/>
<path d="M4370 5496 c0 -2 9 -6 20 -9 11 -3 18 -1 14 4 -5 9 -34 13 -34 5z"/>
<path d="M4038 5483 c7 -3 16 -2 19 1 4 3 -2 6 -13 5 -11 0 -14 -3 -6 -6z"/>
<path d="M4445 5480 c3 -5 8 -10 11 -10 2 0 4 5 4 10 0 6 -5 10 -11 10 -5 0
-7 -4 -4 -10z"/>
<path d="M3840 5439 c0 -16 4 -28 9 -25 8 5 3 56 -5 56 -2 0 -4 -14 -4 -31z"/>
<path d="M3746 5444 c-4 -9 -4 -19 -1 -22 3 -3 5 0 5 7 0 7 4 9 10 6 6 -3 7 1
4 9 -8 20 -10 20 -18 0z"/>
<path d="M4688 5383 c6 -2 18 -2 25 0 6 3 1 5 -13 5 -14 0 -19 -2 -12 -5z"/>
<path d="M4798 5378 c5 -5 16 -8 23 -6 8 3 3 7 -10 11 -17 4 -21 3 -13 -5z"/>
<path d="M3809 5361 c8 -5 10 -14 5 -22 -6 -11 -4 -11 10 0 13 11 14 16 4 22
-7 5 -17 9 -23 9 -5 0 -4 -4 4 -9z"/>
<path d="M4228 5345 c2 -14 6 -25 8 -25 2 0 4 11 4 25 0 14 -4 25 -9 25 -4 0
-6 -11 -3 -25z"/>
<path d="M3896 5317 c3 -10 9 -15 12 -12 3 3 0 11 -7 18 -10 9 -11 8 -5 -6z"/>
<path d="M4310 5306 c0 -22 3 -27 11 -19 8 8 8 16 0 30 -9 16 -10 14 -11 -11z"/>
<path d="M4220 5301 c0 -5 7 -12 16 -15 14 -5 15 -4 4 9 -14 17 -20 19 -20 6z"/>
<path d="M4443 5290 c16 -5 34 -12 41 -17 6 -4 3 0 -7 10 -11 9 -29 17 -41 16
-17 -1 -16 -2 7 -9z"/>
<path d="M3828 5265 c-3 -14 -1 -25 3 -25 5 0 9 11 9 25 0 14 -2 25 -4 25 -2
0 -6 -11 -8 -25z"/>
<path d="M4721 5164 c0 -11 3 -14 6 -6 3 7 2 16 -1 19 -3 4 -6 -2 -5 -13z"/>
<path d="M4664 5142 c4 -3 14 -7 22 -8 9 -1 13 0 10 4 -4 3 -14 7 -22 8 -9 1
-13 0 -10 -4z"/>
<path d="M4663 5096 c-3 -6 -3 -8 2 -4 4 4 13 3 20 -2 8 -7 12 -5 12 3 0 16
-25 18 -34 3z"/>
<path d="M4100 5066 c0 -2 7 -7 16 -10 8 -3 12 -2 9 4 -6 10 -25 14 -25 6z"/>
<path d="M4340 4916 c0 -2 8 -10 18 -17 15 -13 16 -12 3 4 -13 16 -21 21 -21
13z"/>
<path d="M3256 4322 c-3 -5 1 -9 9 -9 8 0 12 4 9 9 -3 4 -7 8 -9 8 -2 0 -6 -4
-9 -8z"/>
<path d="M5423 3715 c-3 -9 -3 -18 -1 -21 3 -3 8 4 11 16 6 23 -1 27 -10 5z"/>
<path d="M5426 3625 c-11 -8 -15 -15 -9 -15 6 0 16 7 23 15 16 19 11 19 -14 0z"/>
<path d="M4245 2140 c-3 -5 -1 -10 4 -10 6 0 11 5 11 10 0 6 -2 10 -4 10 -3 0
-8 -4 -11 -10z"/>
<path d="M4250 2069 c0 -5 5 -7 10 -4 6 3 10 8 10 11 0 2 -4 4 -10 4 -5 0 -10
-5 -10 -11z"/>
<path d="M4235 2019 c-4 -6 -5 -12 -2 -15 2 -3 7 2 10 11 7 17 1 20 -8 4z"/>
<path d="M4581 2085 c-1 -11 -4 -31 -6 -45 l-6 -25 11 25 c6 13 9 33 7 45 -4
19 -4 19 -6 0z"/>
<path d="M4541 1974 c0 -11 3 -14 6 -6 3 7 2 16 -1 19 -3 4 -6 -2 -5 -13z"/>
<path d="M4340 1788 c0 -4 4 -8 9 -8 6 0 12 4 15 8 3 5 -1 9 -9 9 -8 0 -15 -4
-15 -9z"/>
<path d="M4431 1594 c0 -11 3 -14 6 -6 3 7 2 16 -1 19 -3 4 -6 -2 -5 -13z"/>
<path d="M3945 1329 c-4 -6 -5 -12 -2 -15 2 -3 7 2 10 11 7 17 1 20 -8 4z"/>
<path d="M4015 1240 c-4 -17 -5 -34 -2 -36 2 -3 7 10 11 27 3 18 4 34 2 36 -2
3 -7 -10 -11 -27z"/>
<path d="M3280 3630 c0 -13 18 -22 24 -11 3 5 -1 11 -9 15 -8 3 -15 1 -15 -4z"/>
<path d="M3338 3623 c6 -2 18 -2 25 0 6 3 1 5 -13 5 -14 0 -19 -2 -12 -5z"/>
<path d="M3220 3578 c0 -36 4 -35 14 5 4 16 2 27 -4 27 -5 0 -10 -14 -10 -32z"/>
<path d="M3385 3600 c3 -5 16 -10 28 -9 21 0 21 1 2 9 -28 12 -37 12 -30 0z"/>
<path d="M3301 3586 c-7 -8 -16 -27 -20 -43 -7 -26 -5 -29 48 -51 31 -13 62
-26 69 -29 17 -7 16 39 -2 82 -21 50 -70 71 -95 41z"/>
<path d="M3210 3525 c0 -8 5 -15 11 -15 5 0 8 4 4 9 -3 5 3 12 12 14 14 4 13
5 -4 6 -14 1 -23 -5 -23 -14z"/>
<path d="M3150 3510 c0 -5 4 -10 9 -10 6 0 13 5 16 10 3 6 -1 10 -9 10 -9 0
-16 -4 -16 -10z"/>
<path d="M3425 3469 c-11 -16 -1 -19 13 -3 7 8 8 14 3 14 -5 0 -13 -5 -16 -11z"/>
<path d="M3065 3450 c-4 -12 -5 -24 -2 -27 3 -2 8 5 12 17 4 12 5 24 2 27 -3
2 -8 -5 -12 -17z"/>
<path d="M3350 3450 c-9 -6 -10 -10 -3 -10 6 0 15 5 18 10 8 12 4 12 -15 0z"/>
<path d="M6025 3370 c-28 -31 -15 -118 22 -147 36 -29 54 -29 83 2 18 19 34
25 66 25 64 0 86 28 65 83 -8 19 -53 47 -77 47 -2 0 -1 -13 2 -29 7 -32 -13
-59 -65 -85 -59 -31 -74 -13 -64 75 6 53 -3 61 -32 29z"/>
<path d="M2782 3331 c-11 -7 -11 -14 0 -41 l13 -33 0 42 c0 22 0 41 0 41 0 0
-6 -4 -13 -9z"/>
<path d="M2883 3293 c9 -2 17 -9 17 -14 0 -6 5 -7 10 -4 19 12 10 25 -17 24
-17 -1 -21 -3 -10 -6z"/>
<path d="M2972 3270 c0 -19 2 -27 5 -17 2 9 2 25 0 35 -3 9 -5 1 -5 -18z"/>
<path d="M2860 3245 c-14 -8 -20 -14 -14 -15 5 0 19 7 30 15 24 18 16 19 -16
0z"/>
<path d="M2330 3230 c0 -12 28 -25 36 -17 3 3 -4 10 -15 17 -15 7 -21 7 -21 0z"/>
<path d="M2635 3230 c-3 -6 1 -7 9 -4 18 7 21 14 7 14 -6 0 -13 -4 -16 -10z"/>
<path d="M2708 3223 c6 -2 18 -2 25 0 6 3 1 5 -13 5 -14 0 -19 -2 -12 -5z"/>
<path d="M2350 3186 c0 -8 4 -17 9 -20 5 -4 7 3 4 14 -6 23 -13 26 -13 6z"/>
<path d="M2830 3170 c-8 -5 -10 -10 -5 -10 6 0 17 5 25 10 8 5 11 10 5 10 -5
0 -17 -5 -25 -10z"/>
<path d="M2885 3160 c-3 -5 -1 -10 4 -10 6 0 11 5 11 10 0 6 -2 10 -4 10 -3 0
-8 -4 -11 -10z"/>
<path d="M2532 3140 c0 -14 2 -19 5 -12 2 6 2 18 0 25 -3 6 -5 1 -5 -13z"/>
<path d="M3480 3151 c0 -6 4 -13 10 -16 6 -3 7 1 4 9 -7 18 -14 21 -14 7z"/>
<path d="M2290 3133 c0 -4 5 -15 10 -23 8 -13 10 -13 10 2 0 9 -4 20 -10 23
-5 3 -10 3 -10 -2z"/>
<path d="M2361 3124 c0 -11 3 -14 6 -6 3 7 2 16 -1 19 -3 4 -6 -2 -5 -13z"/>
<path d="M2592 3120 c0 -14 2 -19 5 -12 2 6 2 18 0 25 -3 6 -5 1 -5 -13z"/>
<path d="M2748 3113 c7 -3 16 -2 19 1 4 3 -2 6 -13 5 -11 0 -14 -3 -6 -6z"/>
<path d="M5972 3078 c2 -18 9 -22 26 -20 13 2 31 -3 40 -11 10 -9 30 -19 46
-23 l28 -7 -17 27 c-21 32 -64 56 -100 56 -22 0 -26 -4 -23 -22z"/>
<path d="M2580 3068 c0 -9 5 -20 10 -23 13 -8 13 5 0 25 -8 13 -10 13 -10 -2z"/>
<path d="M2730 3065 c0 -8 2 -15 4 -15 2 0 6 7 10 15 3 8 1 15 -4 15 -6 0 -10
-7 -10 -15z"/>
<path d="M3530 3066 c0 -2 8 -10 18 -17 15 -13 16 -12 3 4 -13 16 -21 21 -21
13z"/>
<path d="M2744 3032 c10 -17 81 -52 103 -51 10 0 2 6 -19 14 -20 7 -49 22 -64
32 -16 10 -25 12 -20 5z"/>
<path d="M2290 2991 c0 -10 30 -24 37 -17 3 2 -5 9 -16 16 -12 6 -21 7 -21 1z"/>
<path d="M2536 2983 c-6 -14 -5 -15 5 -6 7 7 10 15 7 18 -3 3 -9 -2 -12 -12z"/>
<path d="M2451 2964 c0 -11 3 -14 6 -6 3 7 2 16 -1 19 -3 4 -6 -2 -5 -13z"/>
<path d="M2982 2950 c0 -14 2 -19 5 -12 2 6 2 18 0 25 -3 6 -5 1 -5 -13z"/>
<path d="M6244 2938 c17 -24 22 -68 7 -68 -5 0 -11 -9 -14 -20 -8 -30 16 -24
36 9 30 51 18 101 -26 101 -17 0 -17 -2 -3 -22z"/>
<path d="M2541 2924 c0 -11 3 -14 6 -6 3 7 2 16 -1 19 -3 4 -6 -2 -5 -13z"/>
<path d="M2275 2920 c3 -5 11 -10 16 -10 6 0 7 5 4 10 -3 6 -11 10 -16 10 -6
0 -7 -4 -4 -10z"/>
<path d="M2316 2905 c4 -8 8 -15 10 -15 2 0 4 7 4 15 0 8 -4 15 -10 15 -5 0
-7 -7 -4 -15z"/>
<path d="M2530 2889 c0 -11 27 -12 34 -1 2 4 -4 9 -15 9 -10 1 -19 -2 -19 -8z"/>
<path d="M2513 2813 c9 -2 23 -2 30 0 6 3 -1 5 -18 5 -16 0 -22 -2 -12 -5z"/>
<path d="M2982 2775 c0 -16 2 -22 5 -12 2 9 2 23 0 30 -3 6 -5 -1 -5 -18z"/>
<path d="M2673 2770 c-11 -16 -10 -18 2 -14 8 4 15 12 15 20 0 19 -3 18 -17
-6z"/>
<path d="M3682 2755 c0 -16 2 -22 5 -12 2 9 2 23 0 30 -3 6 -5 -1 -5 -18z"/>
<path d="M2655 2710 c-4 -12 -5 -24 -2 -27 3 -2 8 5 12 17 4 12 5 24 2 27 -3
2 -8 -5 -12 -17z"/>
<path d="M2961 2722 c-1 -7 -10 -31 -20 -53 -11 -21 -15 -37 -10 -33 14 8 40
76 35 88 -3 6 -5 6 -5 -2z"/>
<path d="M7136 2665 c-15 -32 -50 -83 -77 -114 -92 -104 -257 -399 -408 -731
-33 -74 -72 -157 -86 -184 -14 -27 -25 -56 -25 -63 0 -8 -6 -24 -14 -36 -12
-20 -47 -121 -83 -242 -17 -57 -32 -90 -100 -228 -70 -143 -86 -159 -185 -190
-113 -36 -377 -102 -463 -116 -38 -7 -92 -18 -120 -26 -27 -8 -101 -26 -164
-41 -62 -15 -138 -35 -170 -45 -92 -28 -35 -35 88 -10 142 29 231 46 386 75
72 13 175 35 230 49 55 14 119 28 141 31 23 3 61 15 85 26 58 26 66 25 72 -7
6 -28 -37 -189 -54 -207 -5 -6 -9 -21 -9 -35 0 -14 -8 -43 -19 -65 -10 -23
-28 -86 -40 -141 -12 -55 -37 -160 -56 -232 l-33 -133 304 0 c167 0 304 2 304
5 0 3 -9 24 -20 46 -11 21 -27 85 -36 142 -8 56 -17 112 -20 123 -5 18 1 24
37 36 24 8 44 19 47 26 2 6 -17 33 -41 59 -42 46 -72 91 -65 98 2 2 39 -3 83
-11 44 -8 98 -18 120 -21 l40 -6 -20 23 c-27 30 -69 50 -140 67 -102 24 -144
86 -145 209 0 67 29 192 50 219 5 6 11 37 14 70 5 58 27 189 45 270 4 22 25
80 45 129 20 49 36 92 36 97 0 4 11 25 25 45 13 20 27 52 31 73 4 20 10 38 13
41 3 3 14 21 25 40 10 19 32 62 50 95 48 90 110 235 103 241 -11 11 -29 -9
-48 -52 -11 -24 -24 -46 -29 -49 -15 -10 23 81 78 186 27 52 62 130 78 174 15
44 31 82 34 85 21 17 119 171 129 203 21 62 7 64 -23 2z"/>
<path d="M2345 2680 c-8 -13 5 -13 25 0 13 8 13 10 -2 10 -9 0 -20 -4 -23 -10z"/>
<path d="M2190 2669 c0 -5 9 -9 20 -9 11 0 20 2 20 4 0 2 -9 6 -20 9 -11 3
-20 1 -20 -4z"/>
<path d="M2636 2633 c-6 -14 -5 -15 5 -6 7 7 10 15 7 18 -3 3 -9 -2 -12 -12z"/>
<path d="M2902 2560 c0 -14 2 -19 5 -12 2 6 2 18 0 25 -3 6 -5 1 -5 -13z"/>
<path d="M2262 2558 c3 -7 18 -14 34 -15 20 -1 22 0 7 4 -13 2 -23 9 -23 14 0
5 -5 9 -11 9 -6 0 -9 -6 -7 -12z"/>
<path d="M3170 2559 c0 -5 5 -7 10 -4 6 3 10 8 10 11 0 2 -4 4 -10 4 -5 0 -10
-5 -10 -11z"/>
<path d="M3146 2532 c-2 -4 -1 -14 3 -21 6 -9 10 -7 14 8 5 20 -7 29 -17 13z"/>
<path d="M3216 2528 c-11 -35 -14 -60 -7 -52 10 11 23 64 16 64 -3 0 -7 -6 -9
-12z"/>
<path d="M2177 2510 c3 -11 7 -20 9 -20 2 0 4 9 4 20 0 11 -4 20 -9 20 -5 0
-7 -9 -4 -20z"/>
<path d="M3141 2474 c0 -11 3 -14 6 -6 3 7 2 16 -1 19 -3 4 -6 -2 -5 -13z"/>
<path d="M2577 2454 c-22 -29 -18 -31 12 -5 12 11 18 21 14 24 -4 3 -16 -6
-26 -19z"/>
<path d="M3216 2445 l-9 -30 -7 25 c-5 19 -8 11 -14 -38 -5 -35 -5 -66 -2 -69
3 -4 6 6 6 21 0 15 9 40 21 55 12 16 19 37 17 47 -3 15 -6 12 -12 -11z"/>
<path d="M3270 2465 c1 -5 7 -19 15 -29 8 -11 18 -41 21 -68 4 -26 10 -45 14
-43 12 7 -8 86 -30 120 -11 17 -20 26 -20 20z"/>
<path d="M7104 2456 c-19 -14 -38 -64 -82 -221 -11 -38 -30 -97 -42 -129 -18
-50 -19 -63 -9 -83 10 -19 8 -28 -14 -62 -15 -22 -31 -57 -36 -78 -5 -21 -23
-76 -40 -122 -17 -47 -28 -87 -25 -90 10 -10 64 58 64 80 0 11 9 38 21 61 31
61 82 208 119 338 17 63 47 149 65 190 19 41 37 87 41 103 5 24 3 27 -18 27
-13 0 -33 -6 -44 -14z"/>
<path d="M3087 2453 c-2 -5 0 -21 4 -38 7 -29 7 -29 8 8 1 35 -3 46 -12 30z"/>
<path d="M2910 2430 c0 -5 5 -10 10 -10 6 0 10 5 10 10 0 6 -4 10 -10 10 -5 0
-10 -4 -10 -10z"/>
<path d="M2855 2420 c-3 -5 -1 -10 4 -10 6 0 11 5 11 10 0 6 -2 10 -4 10 -3 0
-8 -4 -11 -10z"/>
<path d="M7240 2422 c0 -10 18 -66 54 -167 l24 -70 1 51 c1 54 -45 184 -67
192 -7 2 -12 0 -12 -6z"/>
<path d="M2536 2405 c-3 -9 -6 -22 -5 -28 0 -7 5 -1 10 12 5 13 8 26 5 28 -2
2 -6 -3 -10 -12z"/>
<path d="M2326 2380 c4 -8 11 -30 15 -50 7 -35 7 -35 8 -4 0 16 -6 39 -15 50
-8 10 -12 12 -8 4z"/>
<path d="M2810 2380 c0 -5 5 -10 10 -10 6 0 10 5 10 10 0 6 -4 10 -10 10 -5 0
-10 -4 -10 -10z"/>
<path d="M2402 2355 c0 -16 2 -22 5 -12 2 9 2 23 0 30 -3 6 -5 -1 -5 -18z"/>
<path d="M3202 2355 c0 -16 2 -22 5 -12 2 9 2 23 0 30 -3 6 -5 -1 -5 -18z"/>
<path d="M2521 2344 c0 -11 3 -14 6 -6 3 7 2 16 -1 19 -3 4 -6 -2 -5 -13z"/>
<path d="M3112 2320 c0 -14 2 -19 5 -12 2 6 2 18 0 25 -3 6 -5 1 -5 -13z"/>
<path d="M6995 2320 c-3 -5 -1 -10 4 -10 6 0 11 5 11 10 0 6 -2 10 -4 10 -3 0
-8 -4 -11 -10z"/>
<path d="M2847 2303 c-9 -9 -9 -41 1 -46 4 -3 7 8 8 24 1 31 1 32 -9 22z"/>
<path d="M6985 2270 c-8 -16 -15 -37 -15 -47 0 -15 2 -15 14 -3 18 20 38 80
26 80 -5 0 -16 -13 -25 -30z"/>
<path d="M3121 2274 c0 -11 3 -14 6 -6 3 7 2 16 -1 19 -3 4 -6 -2 -5 -13z"/>
<path d="M2536 2218 c1 -29 0 -39 -3 -21 -2 17 -10 36 -17 42 -10 9 -14 -19
-20 -143 -8 -188 -29 -378 -56 -516 -11 -58 -20 -106 -20 -107 0 -2 10 -3 21
-3 21 0 22 -2 15 -111 -4 -61 -12 -122 -17 -136 -9 -25 -10 -25 -23 -7 -12 15
-16 16 -30 5 -24 -20 -20 -46 15 -93 24 -34 27 -44 17 -53 -33 -25 -68 -87
-103 -185 -44 -123 -62 -153 -84 -146 -57 18 -58 18 -63 -2 -6 -23 -92 -66
-149 -75 -65 -10 -177 -47 -200 -66 -20 -16 -21 -21 -10 -35 18 -22 75 -36
148 -36 92 0 161 -17 174 -43 6 -12 31 -48 56 -80 25 -32 60 -83 78 -113 l34
-56 -57 -54 c-40 -38 -65 -54 -84 -54 -21 0 -28 -5 -28 -20 0 -11 -7 -36 -15
-56 -14 -34 -14 -35 11 -44 14 -6 99 -10 190 -10 l164 0 0 32 c0 26 55 494 63
535 3 18 64 -7 120 -50 27 -20 53 -37 59 -37 14 0 1 81 -22 134 -19 45 -76 83
-106 72 -12 -5 -14 -1 -8 17 4 12 6 77 5 144 -1 83 4 151 16 210 27 140 22
335 -13 493 -3 14 -8 72 -11 130 -3 58 -11 128 -18 156 -11 43 -11 65 1 130
16 89 20 196 9 215 -5 6 -8 28 -9 48 -1 23 -6 37 -16 39 -12 2 -15 -8 -14 -50z"/>
<path d="M2151 2234 c0 -11 3 -14 6 -6 3 7 2 16 -1 19 -3 4 -6 -2 -5 -13z"/>
<path d="M3136 2190 c6 -65 10 -78 19 -68 3 2 -2 34 -10 69 l-14 64 5 -65z"/>
<path d="M2620 2230 c0 -12 89 -64 97 -57 3 4 -11 14 -31 23 -20 10 -36 21
-36 25 0 4 -7 9 -15 13 -8 3 -15 1 -15 -4z"/>
<path d="M2876 2217 c3 -10 9 -15 12 -12 3 3 0 11 -7 18 -10 9 -11 8 -5 -6z"/>
<path d="M3200 2222 c0 -4 14 -16 30 -25 17 -10 30 -15 30 -10 0 4 -14 16 -30
25 -17 9 -30 14 -30 10z"/>
<path d="M2920 2190 c0 -4 11 -10 25 -12 13 -3 22 -2 20 2 -7 11 -45 20 -45
10z"/>
<path d="M3741 2184 c0 -11 3 -14 6 -6 3 7 2 16 -1 19 -3 4 -6 -2 -5 -13z"/>
<path d="M3272 2150 c0 -19 2 -27 5 -17 2 9 2 25 0 35 -3 9 -5 1 -5 -18z"/>
<path d="M2211 2154 c0 -11 3 -14 6 -6 3 7 2 16 -1 19 -3 4 -6 -2 -5 -13z"/>
<path d="M6916 2143 c-6 -14 -5 -15 5 -6 7 7 10 15 7 18 -3 3 -9 -2 -12 -12z"/>
<path d="M3680 2130 c0 -5 5 -10 11 -10 5 0 7 5 4 10 -3 6 -8 10 -11 10 -2 0
-4 -4 -4 -10z"/>
<path d="M2942 2105 c0 -16 2 -22 5 -12 2 9 2 23 0 30 -3 6 -5 -1 -5 -18z"/>
<path d="M3150 2099 c0 -5 5 -7 10 -4 6 3 10 8 10 11 0 2 -4 4 -10 4 -5 0 -10
-5 -10 -11z"/>
<path d="M3096 2082 c-9 -28 3 -52 26 -52 16 0 19 6 16 32 -3 37 -33 51 -42
20z"/>
<path d="M3228 2093 c6 -2 18 -2 25 0 6 3 1 5 -13 5 -14 0 -19 -2 -12 -5z"/>
<path d="M2111 2074 c0 -11 3 -14 6 -6 3 7 2 16 -1 19 -3 4 -6 -2 -5 -13z"/>
<path d="M2939 2034 c8 -18 16 -32 17 -31 7 7 -10 56 -20 60 -9 4 -8 -5 3 -29z"/>
<path d="M5703 2063 c-7 -2 -13 -11 -13 -20 0 -20 34 -12 38 10 3 17 -3 20
-25 10z"/>
<path d="M2181 2024 c0 -11 3 -14 6 -6 3 7 2 16 -1 19 -3 4 -6 -2 -5 -13z"/>
<path d="M3181 2023 c0 -6 -4 -20 -7 -30 -5 -14 -4 -15 5 -7 7 7 11 20 8 30
-3 11 -5 14 -6 7z"/>
<path d="M3225 2020 c3 -5 8 -10 11 -10 2 0 4 5 4 10 0 6 -5 10 -11 10 -5 0
-7 -4 -4 -10z"/>
<path d="M2110 2014 c0 -3 7 -12 15 -20 13 -14 15 -13 15 5 0 12 -6 21 -15 21
-8 0 -15 -3 -15 -6z"/>
<path d="M2315 2010 c-3 -5 -1 -10 4 -10 6 0 11 5 11 10 0 6 -2 10 -4 10 -3 0
-8 -4 -11 -10z"/>
<path d="M2763 1979 c-7 -18 -11 -34 -9 -37 7 -7 27 39 24 55 -2 9 -8 2 -15
-18z"/>
<path d="M2217 1985 c-4 -8 -2 -17 3 -20 6 -4 10 3 10 14 0 25 -6 27 -13 6z"/>
<path d="M2248 1993 c7 -3 16 -2 19 1 4 3 -2 6 -13 5 -11 0 -14 -3 -6 -6z"/>
<path d="M3641 1984 c0 -11 3 -14 6 -6 3 7 2 16 -1 19 -3 4 -6 -2 -5 -13z"/>
<path d="M3256 1977 c3 -10 9 -15 12 -12 3 3 0 11 -7 18 -10 9 -11 8 -5 -6z"/>
<path d="M3660 1971 c0 -6 4 -13 10 -16 6 -3 7 1 4 9 -7 18 -14 21 -14 7z"/>
<path d="M2080 1936 c0 -2 7 -7 16 -10 8 -3 12 -2 9 4 -6 10 -25 14 -25 6z"/>
<path d="M3644 1929 c-46 -17 -72 -97 -42 -127 28 -28 148 -2 148 32 0 8 3 21
6 29 7 20 -35 66 -66 71 -14 2 -35 0 -46 -5z"/>
<path d="M5552 1881 c-29 -30 -52 -59 -52 -64 0 -5 -15 -28 -33 -51 -154 -191
-285 -381 -272 -394 3 -4 14 3 23 14 9 12 53 65 97 120 80 98 165 220 165 235
0 4 13 16 29 25 17 10 33 29 36 43 3 14 20 42 37 63 48 62 27 68 -30 9z"/>
<path d="M3017 1885 c10 -13 22 -25 26 -25 4 0 0 11 -10 25 -10 13 -22 25 -26
25 -4 0 0 -11 10 -25z"/>
<path d="M2240 1815 c-7 -9 -8 -15 -2 -15 5 0 12 7 16 15 3 8 4 15 2 15 -2 0
-9 -7 -16 -15z"/>
<path d="M2436 1797 c3 -10 9 -15 12 -12 3 3 0 11 -7 18 -10 9 -11 8 -5 -6z"/>
<path d="M2810 1801 c0 -5 5 -13 10 -16 6 -3 10 -2 10 4 0 5 -4 13 -10 16 -5
3 -10 2 -10 -4z"/>
<path d="M2225 1770 c3 -5 8 -10 11 -10 2 0 4 5 4 10 0 6 -5 10 -11 10 -5 0
-7 -4 -4 -10z"/>
<path d="M3050 1763 c0 -12 5 -25 11 -28 16 -11 17 -2 2 25 -12 24 -13 24 -13
3z"/>
<path d="M3661 1754 c0 -11 3 -14 6 -6 3 7 2 16 -1 19 -3 4 -6 -2 -5 -13z"/>
<path d="M2200 1739 c0 -5 5 -7 10 -4 6 3 10 8 10 11 0 2 -4 4 -10 4 -5 0 -10
-5 -10 -11z"/>
<path d="M2813 1685 c0 -33 2 -45 4 -27 2 18 2 45 0 60 -2 15 -4 0 -4 -33z"/>
<path d="M2431 1694 c0 -11 3 -14 6 -6 3 7 2 16 -1 19 -3 4 -6 -2 -5 -13z"/>
<path d="M3265 1680 c-3 -5 -1 -10 4 -10 6 0 11 5 11 10 0 6 -2 10 -4 10 -3 0
-8 -4 -11 -10z"/>
<path d="M3142 1640 c0 -14 2 -19 5 -12 2 6 2 18 0 25 -3 6 -5 1 -5 -13z"/>
<path d="M2051 1645 c1 -19 18 -51 18 -35 0 8 -4 22 -9 30 -5 8 -9 11 -9 5z"/>
<path d="M3680 1593 c0 -31 2 -54 4 -52 9 9 13 109 5 109 -5 0 -9 -25 -9 -57z"/>
<path d="M2411 1604 c0 -11 3 -14 6 -6 3 7 2 16 -1 19 -3 4 -6 -2 -5 -13z"/>
<path d="M2832 1600 c0 -14 2 -19 5 -12 2 6 2 18 0 25 -3 6 -5 1 -5 -13z"/>
<path d="M3293 1613 c9 -2 23 -2 30 0 6 3 -1 5 -18 5 -16 0 -22 -2 -12 -5z"/>
<path d="M3150 1601 c0 -5 5 -13 10 -16 6 -3 10 -2 10 4 0 5 -4 13 -10 16 -5
3 -10 2 -10 -4z"/>
<path d="M2267 1540 c3 -11 9 -20 13 -20 5 0 6 9 3 20 -3 11 -9 20 -13 20 -5
0 -6 -9 -3 -20z"/>
<path d="M2208 1543 c7 -3 16 -2 19 1 4 3 -2 6 -13 5 -11 0 -14 -3 -6 -6z"/>
<path d="M5530 1543 c0 -3 11 -20 24 -38 14 -17 27 -49 31 -71 4 -21 14 -61
22 -88 15 -46 14 -86 -3 -173 -5 -26 -3 -33 10 -33 9 0 16 -4 16 -10 0 -5 4
-10 10 -10 15 0 37 50 50 115 6 33 17 75 23 92 9 28 8 37 -11 62 -12 17 -22
44 -22 61 0 33 -19 41 -27 11 -9 -33 -35 -13 -28 20 6 26 4 29 -17 29 -13 0
-31 9 -41 20 -16 19 -37 27 -37 13z m150 -245 c0 -35 -20 -98 -30 -98 -14 0
-12 33 2 80 14 44 28 53 28 18z"/>
<path d="M3382 1505 c0 -16 2 -22 5 -12 2 9 2 23 0 30 -3 6 -5 -1 -5 -18z"/>
<path d="M3301 1494 c0 -11 3 -14 6 -6 3 7 2 16 -1 19 -3 4 -6 -2 -5 -13z"/>
<path d="M2285 1479 c-4 -6 -5 -12 -2 -15 2 -3 7 2 10 11 7 17 1 20 -8 4z"/>
<path d="M2880 1480 c0 -5 6 -10 14 -10 8 0 17 -6 19 -12 4 -8 6 -7 6 3 1 9
-6 20 -15 23 -21 8 -24 8 -24 -4z"/>
<path d="M3668 1408 c-3 -7 3 -22 14 -32 18 -19 18 -19 7 12 -12 35 -15 38
-21 20z"/>
<path d="M2900 1400 c8 -5 20 -10 25 -10 6 0 3 5 -5 10 -8 5 -19 10 -25 10 -5
0 -3 -5 5 -10z"/>
<path d="M2958 1373 c7 -3 16 -2 19 1 4 3 -2 6 -13 5 -11 0 -14 -3 -6 -6z"/>
<path d="M3028 1373 c7 -3 16 -2 19 1 4 3 -2 6 -13 5 -11 0 -14 -3 -6 -6z"/>
<path d="M3403 1325 c0 -27 2 -38 4 -22 2 15 2 37 0 50 -2 12 -4 0 -4 -28z"/>
<path d="M3650 1349 c0 -15 28 -60 33 -52 3 5 -3 20 -14 33 -10 14 -19 22 -19
19z"/>
<path d="M3305 1326 c-3 -9 -7 -23 -10 -32 -6 -18 43 -134 56 -134 4 0 6 21 3
46 -8 92 -36 160 -49 120z"/>
<path d="M3050 1301 c0 -5 5 -13 10 -16 6 -3 10 -2 10 4 0 5 -4 13 -10 16 -5
3 -10 2 -10 -4z"/>
<path d="M2973 1255 c0 -22 2 -30 4 -17 2 12 2 30 0 40 -3 9 -5 -1 -4 -23z"/>
<path d="M3685 1280 c-3 -5 -2 -18 4 -27 7 -14 9 -12 8 10 -2 30 -3 31 -12 17z"/>
<path d="M5018 1237 c-27 -27 -48 -51 -48 -54 0 -2 -10 -17 -22 -33 -12 -16
-18 -33 -14 -37 11 -11 59 19 72 45 6 13 21 30 33 38 37 27 63 99 33 93 -4 -1
-28 -24 -54 -52z"/>
<path d="M3053 1213 c9 -2 25 -2 35 0 9 3 1 5 -18 5 -19 0 -27 -2 -17 -5z"/>
<path d="M4505 1199 c-4 -6 -5 -12 -2 -15 2 -3 7 2 10 11 7 17 1 20 -8 4z"/>
<path d="M6651 1169 c-14 -42 -7 -49 9 -9 7 17 10 33 8 36 -3 3 -11 -9 -17
-27z"/>
<path d="M4519 1173 c-13 -16 -12 -17 4 -4 9 7 17 15 17 17 0 8 -8 3 -21 -13z"/>
<path d="M7293 1147 c-31 -45 -102 -119 -143 -149 -33 -24 -43 -26 -183 -31
-81 -2 -150 -7 -153 -10 -9 -9 61 -56 92 -63 17 -3 57 2 89 11 33 9 71 19 85
22 42 10 154 88 198 138 32 36 42 56 42 81 0 19 -1 34 -2 34 -2 0 -13 -15 -25
-33z"/>
<path d="M2356 1127 c3 -10 9 -15 12 -12 3 3 0 11 -7 18 -10 9 -11 8 -5 -6z"/>
<path d="M3190 1120 c0 -5 5 -10 10 -10 6 0 10 5 10 10 0 6 -4 10 -10 10 -5 0
-10 -4 -10 -10z"/>
<path d="M4435 1120 c-3 -5 -1 -10 4 -10 6 0 11 5 11 10 0 6 -2 10 -4 10 -3 0
-8 -4 -11 -10z"/>
<path d="M4881 952 c-98 -97 -181 -188 -185 -200 -11 -33 3 -42 21 -14 9 12
21 22 27 22 6 0 43 32 81 71 39 39 78 75 88 80 9 5 17 15 17 22 0 7 34 50 75
96 73 82 86 101 65 101 -6 0 -91 -80 -189 -178z"/>
<path d="M3041 1098 c-7 -19 -4 -58 4 -58 2 0 5 18 7 40 4 45 1 50 -11 18z"/>
<path d="M2631 1094 c0 -11 3 -14 6 -6 3 7 2 16 -1 19 -3 4 -6 -2 -5 -13z"/>
<path d="M3712 1090 c0 -14 2 -19 5 -12 2 6 2 18 0 25 -3 6 -5 1 -5 -13z"/>
<path d="M2350 1096 c0 -2 8 -10 18 -17 15 -13 16 -12 3 4 -13 16 -21 21 -21
13z"/>
<path d="M3254 1079 c-4 -7 -3 -9 4 -5 5 3 13 0 15 -6 4 -9 6 -10 6 -1 1 17
-16 25 -25 12z"/>
<path d="M6621 1064 c0 -11 3 -14 6 -6 3 7 2 16 -1 19 -3 4 -6 -2 -5 -13z"/>
<path d="M2616 997 c3 -10 9 -15 12 -12 3 3 0 11 -7 18 -10 9 -11 8 -5 -6z"/>
<path d="M3460 1000 c0 -5 5 -10 11 -10 5 0 7 5 4 10 -3 6 -8 10 -11 10 -2 0
-4 -4 -4 -10z"/>
<path d="M1965 975 c-3 -8 -7 -22 -10 -30 -2 -8 -15 -15 -27 -15 l-22 0 22
-16 c21 -15 25 -15 43 2 10 9 19 30 19 46 0 29 -17 39 -25 13z"/>
<path d="M3230 976 c0 -2 9 -6 20 -9 11 -3 18 -1 14 4 -5 9 -34 13 -34 5z"/>
<path d="M4435 960 c-3 -5 -1 -10 4 -10 6 0 11 5 11 10 0 6 -2 10 -4 10 -3 0
-8 -4 -11 -10z"/>
<path d="M3590 951 c0 -6 4 -13 10 -16 6 -3 7 1 4 9 -7 18 -14 21 -14 7z"/>
<path d="M3145 940 c3 -5 8 -10 11 -10 2 0 4 5 4 10 0 6 -5 10 -11 10 -5 0 -7
-4 -4 -10z"/>
<path d="M3732 930 c0 -14 2 -19 5 -12 2 6 2 18 0 25 -3 6 -5 1 -5 -13z"/>
<path d="M6710 919 c0 -5 11 -9 25 -9 14 0 25 2 25 4 0 2 -11 6 -25 8 -14 3
-25 1 -25 -3z"/>
<path d="M6820 895 c14 -8 34 -14 45 -14 11 0 2 6 -20 14 -50 18 -57 18 -25 0z"/>
<path d="M4412 870 c0 -14 2 -19 5 -12 2 6 2 18 0 25 -3 6 -5 1 -5 -13z"/>
<path d="M3204 865 c-18 -14 -18 -14 4 -8 12 3 22 9 22 14 0 12 -3 11 -26 -6z"/>
<path d="M1846 853 c-6 -14 -5 -15 5 -6 7 7 10 15 7 18 -3 3 -9 -2 -12 -12z"/>
<path d="M6501 854 c0 -11 3 -14 6 -6 3 7 2 16 -1 19 -3 4 -6 -2 -5 -13z"/>
<path d="M6838 863 c7 -3 16 -2 19 1 4 3 -2 6 -13 5 -11 0 -14 -3 -6 -6z"/>
<path d="M3306 842 c-3 -5 1 -9 9 -9 8 0 15 4 15 9 0 4 -4 8 -9 8 -6 0 -12 -4
-15 -8z"/>
<path d="M3682 830 c12 -19 58 -34 58 -19 0 5 -9 9 -20 9 -11 0 -20 4 -20 9 0
5 -7 11 -15 15 -12 4 -13 2 -3 -14z"/>
<path d="M3421 810 c0 -14 28 -72 29 -59 0 4 -7 22 -15 40 -8 19 -14 27 -14
19z"/>
<path d="M2144 791 c20 -22 26 -25 26 -13 0 4 -10 13 -22 21 -23 14 -23 14 -4
-8z"/>
<path d="M3046 797 c3 -10 9 -15 12 -12 3 3 0 11 -7 18 -10 9 -11 8 -5 -6z"/>
<path d="M2731 758 c-1 -16 4 -28 9 -28 12 0 12 8 0 35 -8 18 -9 17 -9 -7z"/>
<path d="M3343 731 c0 -22 3 -41 8 -41 16 0 18 19 5 50 l-13 33 0 -42z"/>
<path d="M6970 746 c-6 -9 -10 -21 -7 -28 4 -9 6 -7 6 4 1 9 7 18 14 21 6 2 9
7 6 11 -3 4 -12 0 -19 -8z"/>
<path d="M2796 725 c-3 -8 -1 -15 4 -15 6 0 10 7 10 15 0 8 -2 15 -4 15 -2 0
-6 -7 -10 -15z"/>
<path d="M3120 726 c0 -2 8 -10 18 -17 15 -13 16 -12 3 4 -13 16 -21 21 -21
13z"/>
<path d="M4350 709 c0 -5 5 -7 10 -4 6 3 10 8 10 11 0 2 -4 4 -10 4 -5 0 -10
-5 -10 -11z"/>
<path d="M4420 706 c0 -8 -6 -17 -12 -19 -8 -3 -6 -6 5 -6 11 -1 17 6 17 19 0
11 -2 20 -5 20 -3 0 -5 -6 -5 -14z"/>
<path d="M3800 665 c0 -20 4 -26 18 -23 9 2 17 12 17 23 0 11 -8 21 -17 23
-14 3 -18 -3 -18 -23z"/>
<path d="M4442 650 c-39 -45 -54 -106 -28 -116 9 -3 16 -15 16 -25 0 -10 7
-19 15 -19 8 0 15 4 15 9 0 5 34 35 75 66 41 31 75 61 75 66 0 6 -29 -5 -64
-25 -100 -56 -139 -43 -76 26 17 18 30 38 30 45 0 23 -25 12 -58 -27z"/>
<path d="M3407 669 c7 -7 15 -10 18 -7 3 3 -2 9 -12 12 -14 6 -15 5 -6 -5z"/>
<path d="M4340 665 c-7 -9 -10 -18 -7 -21 3 -3 10 4 17 15 13 25 8 27 -10 6z"/>
<path d="M5958 673 c7 -3 16 -2 19 1 4 3 -2 6 -13 5 -11 0 -14 -3 -6 -6z"/>
<path d="M3415 630 c3 -5 8 -10 11 -10 2 0 4 5 4 10 0 6 -5 10 -11 10 -5 0 -7
-4 -4 -10z"/>
<path d="M5791 624 c0 -11 3 -14 6 -6 3 7 2 16 -1 19 -3 4 -6 -2 -5 -13z"/>
<path d="M6595 620 c3 -5 8 -10 11 -10 2 0 4 5 4 10 0 6 -5 10 -11 10 -5 0 -7
-4 -4 -10z"/>
<path d="M6900 620 c0 -5 9 -10 21 -10 11 0 17 5 14 10 -3 6 -13 10 -21 10 -8
0 -14 -4 -14 -10z"/>
<path d="M3037 613 c-4 -3 -7 -11 -7 -17 0 -6 5 -5 12 2 6 6 9 14 7 17 -3 3
-9 2 -12 -2z"/>
<path d="M5662 595 c0 -16 2 -22 5 -12 2 9 2 23 0 30 -3 6 -5 -1 -5 -18z"/>
<path d="M3454 580 c0 -11 5 -21 11 -21 16 -1 17 17 2 30 -12 9 -14 7 -13 -9z"/>
<path d="M6786 586 c3 -8 13 -17 22 -21 13 -5 13 -2 -3 15 -21 24 -26 25 -19
6z"/>
<path d="M2980 580 c0 -5 5 -10 11 -10 5 0 7 5 4 10 -3 6 -8 10 -11 10 -2 0
-4 -4 -4 -10z"/>
<path d="M3491 560 c0 -8 4 -22 9 -30 12 -18 12 -2 0 25 -6 13 -9 15 -9 5z"/>
<path d="M4322 540 c0 -14 2 -19 5 -12 2 6 2 18 0 25 -3 6 -5 1 -5 -13z"/>
<path d="M1755 519 c-4 -6 -5 -12 -2 -15 2 -3 7 2 10 11 7 17 1 20 -8 4z"/>
<path d="M2625 500 c3 -5 8 -10 11 -10 2 0 4 5 4 10 0 6 -5 10 -11 10 -5 0 -7
-4 -4 -10z"/>
<path d="M4412 480 c0 -14 2 -19 5 -12 2 6 2 18 0 25 -3 6 -5 1 -5 -13z"/>
<path d="M2085 480 c3 -5 11 -10 16 -10 6 0 7 5 4 10 -3 6 -11 10 -16 10 -6 0
-7 -4 -4 -10z"/>
<path d="M6813 443 c9 -2 23 -2 30 0 6 3 -1 5 -18 5 -16 0 -22 -2 -12 -5z"/>
<path d="M6900 440 c0 -5 4 -10 9 -10 6 0 13 5 16 10 3 6 -1 10 -9 10 -9 0
-16 -4 -16 -10z"/>
<path d="M5801 406 c-9 -11 -8 -15 5 -20 12 -4 15 -2 10 9 -3 9 0 15 8 15 8 0
16 -6 19 -12 2 -7 8 -9 13 -5 9 8 -13 27 -32 27 -6 0 -17 -6 -23 -14z"/>
<path d="M4185 400 c-3 -5 -1 -10 4 -10 6 0 11 5 11 10 0 6 -2 10 -4 10 -3 0
-8 -4 -11 -10z"/>
<path d="M2167 375 c-4 -8 -3 -16 1 -19 4 -3 9 4 9 15 2 23 -3 25 -10 4z"/>
<path d="M4162 370 c0 -14 2 -19 5 -12 2 6 2 18 0 25 -3 6 -5 1 -5 -13z"/>
<path d="M4131 364 c0 -11 3 -14 6 -6 3 7 2 16 -1 19 -3 4 -6 -2 -5 -13z"/>
<path d="M6075 360 c3 -5 11 -10 16 -10 6 0 7 5 4 10 -3 6 -11 10 -16 10 -6 0
-7 -4 -4 -10z"/>
<path d="M1666 343 c-6 -14 -5 -15 5 -6 7 7 10 15 7 18 -3 3 -9 -2 -12 -12z"/>
<path d="M6598 323 c7 -3 16 -2 19 1 4 3 -2 6 -13 5 -11 0 -14 -3 -6 -6z"/>
<path d="M1726 312 c-10 -16 82 -31 212 -35 72 -2 132 -2 132 0 0 2 -19 13
-42 23 -35 16 -66 20 -170 20 -70 0 -129 -4 -132 -8z"/>
<path d="M3335 300 c-3 -6 1 -7 9 -4 18 7 21 14 7 14 -6 0 -13 -4 -16 -10z"/>
<path d="M4920 300 c-33 -7 -31 -7 18 -9 29 0 52 3 52 9 0 11 -17 11 -70 0z"/>
<path d="M5013 303 c9 -2 23 -2 30 0 6 3 -1 5 -18 5 -16 0 -22 -2 -12 -5z"/>
<path d="M5898 303 c7 -3 16 -2 19 1 4 3 -2 6 -13 5 -11 0 -14 -3 -6 -6z"/>
<path d="M6598 293 c7 -3 16 -2 19 1 4 3 -2 6 -13 5 -11 0 -14 -3 -6 -6z"/>
<path d="M3397 279 c7 -7 15 -10 18 -7 3 3 -2 9 -12 12 -14 6 -15 5 -6 -5z"/>
<path d="M4707 283 c-4 -3 -7 -13 -7 -22 1 -13 3 -13 11 2 11 19 8 33 -4 20z"/>
<path d="M7051 274 c0 -11 3 -14 6 -6 3 7 2 16 -1 19 -3 4 -6 -2 -5 -13z"/>
<path d="M5833 258 c-18 -22 -22 -52 -13 -88 8 -34 8 -34 7 12 0 26 6 54 13
63 7 8 11 18 8 20 -3 3 -10 0 -15 -7z"/>
<path d="M4640 245 c7 -9 15 -13 17 -11 7 7 -7 26 -19 26 -6 0 -6 -6 2 -15z"/>
<path d="M6850 240 c-12 -7 -12 -12 4 -29 24 -26 65 -35 102 -21 l29 12 -28
24 c-29 25 -79 32 -107 14z"/>
<path d="M4531 215 c-35 -13 -66 -27 -70 -31 -3 -4 1 -5 10 -1 10 3 37 11 60
18 41 12 95 40 74 38 -6 0 -39 -11 -74 -24z"/>
<path d="M1828 223 c12 -2 30 -2 40 0 9 3 -1 5 -23 4 -22 0 -30 -2 -17 -4z"/>
<path d="M1941 225 c9 -8 79 -14 79 -6 0 4 -19 8 -42 9 -23 1 -39 0 -37 -3z"/>
<path d="M5116 213 c-6 -14 -5 -15 5 -6 7 7 10 15 7 18 -3 3 -9 -2 -12 -12z"/>
<path d="M5887 211 c-4 -17 -3 -21 5 -13 5 5 8 16 6 23 -3 8 -7 3 -11 -10z"/>
<path d="M1665 211 c-11 -5 -24 -6 -29 -3 -5 3 -6 0 -2 -7 4 -6 12 -8 18 -4 7
3 39 9 72 13 l61 7 -50 1 c-27 0 -59 -3 -70 -7z"/>
<path d="M2060 210 c0 -5 7 -10 16 -10 8 0 12 5 9 10 -3 6 -10 10 -16 10 -5 0
-9 -4 -9 -10z"/>
<path d="M5958 213 c-3 -4 -2 -19 2 -33 l6 -25 8 24 c8 22 -7 52 -16 34z"/>
<path d="M6040 199 c0 -5 5 -7 10 -4 6 3 10 8 10 11 0 2 -4 4 -10 4 -5 0 -10
-5 -10 -11z"/>
<path d="M1605 190 c-3 -5 -1 -10 4 -10 6 0 11 5 11 10 0 6 -2 10 -4 10 -3 0
-8 -4 -11 -10z"/>
<path d="M7164 164 c7 -28 92 -122 101 -112 8 8 -19 62 -52 106 -30 40 -58 44
-49 6z"/>
<path d="M4405 170 c-13 -5 -14 -9 -5 -9 8 0 24 4 35 9 13 5 14 9 5 9 -8 0
-24 -4 -35 -9z"/>
<path d="M6026 165 c-9 -26 -7 -32 5 -12 6 10 9 21 6 23 -2 3 -7 -2 -11 -11z"/>
<path d="M6838 173 c7 -3 16 -2 19 1 4 3 -2 6 -13 5 -11 0 -14 -3 -6 -6z"/>
<path d="M6988 173 c7 -3 16 -2 19 1 4 3 -2 6 -13 5 -11 0 -14 -3 -6 -6z"/>
<path d="M2135 160 c-3 -5 1 -10 10 -10 9 0 13 5 10 10 -3 6 -8 10 -10 10 -2
0 -7 -4 -10 -10z"/>
<path d="M5950 140 c0 -5 5 -10 10 -10 6 0 10 5 10 10 0 6 -4 10 -10 10 -5 0
-10 -4 -10 -10z"/>
<path d="M2090 125 c-7 -8 -8 -15 -2 -15 5 0 15 7 22 15 7 8 8 15 2 15 -5 0
-15 -7 -22 -15z"/>
<path d="M5711 118 c1 -19 2 -19 6 -5 3 11 11 16 19 13 8 -3 14 -1 14 4 0 6
-9 10 -20 10 -14 0 -20 -6 -19 -22z"/>
<path d="M5066 115 c-11 -8 -15 -15 -10 -15 6 0 19 7 30 15 10 8 15 14 9 14
-5 0 -19 -6 -29 -14z"/>
<path d="M5840 120 c-9 -6 -10 -10 -3 -10 6 0 15 5 18 10 8 12 4 12 -15 0z"/>
<path d="M5880 126 c0 -2 7 -7 16 -10 8 -3 12 -2 9 4 -6 10 -25 14 -25 6z"/>
<path d="M4137 113 c-4 -3 -7 -11 -7 -17 0 -6 5 -5 12 2 6 6 9 14 7 17 -3 3
-9 2 -12 -2z"/>
<path d="M6796 101 c-4 -5 3 -7 14 -4 23 6 26 13 6 13 -8 0 -17 -4 -20 -9z"/>
<path d="M4184 75 c-3 -14 -4 -29 0 -32 3 -4 6 3 6 14 0 12 5 23 12 25 9 3 9
6 0 12 -7 4 -14 -3 -18 -19z"/>
<path d="M4256 84 c-9 -23 -4 -24 17 -2 13 14 14 18 3 18 -8 0 -17 -7 -20 -16z"/>
<path d="M7160 71 c0 -17 2 -31 4 -31 8 0 13 51 5 56 -5 3 -9 -9 -9 -25z"/>
<path d="M2039 73 c-13 -16 -12 -17 4 -4 9 7 17 15 17 17 0 8 -8 3 -21 -13z"/>
<path d="M5030 61 c0 -11 4 -22 9 -25 4 -3 6 6 3 19 -5 30 -12 33 -12 6z"/>
<path d="M6885 70 c11 -5 27 -9 35 -9 9 0 8 4 -5 9 -11 5 -27 9 -35 9 -9 0 -8
-4 5 -9z"/>
<path d="M4230 61 c0 -6 4 -13 10 -16 6 -3 7 1 4 9 -7 18 -14 21 -14 7z"/>
<path d="M5908 63 c6 -2 18 -2 25 0 6 3 1 5 -13 5 -14 0 -19 -2 -12 -5z"/>
<path d="M6011 54 c0 -11 3 -14 6 -6 3 7 2 16 -1 19 -3 4 -6 -2 -5 -13z"/>
<path d="M6660 51 c0 -40 11 -51 52 -51 l39 0 -27 35 c-29 38 -64 47 -64 16z"/>
<path d="M1986 34 c-18 -17 -20 -24 -8 -24 4 0 13 9 20 20 15 24 9 26 -12 4z"/>
<path d="M5111 40 c0 -8 4 -22 9 -30 12 -18 12 -2 0 25 -6 13 -9 15 -9 5z"/>
<path d="M6940 46 c0 -2 18 -13 40 -25 48 -25 53 -19 8 9 -32 19 -48 25 -48
16z"/>
</g>
</svg>
